<?xml version="1.0" standalone="no"?>
<!DOCTYPE svg PUBLIC "-//W3C//DTD SVG 20010904//EN"
 "http://www.w3.org/TR/2001/REC-SVG-20010904/DTD/svg10.dtd">
<svg version="1.0" xmlns="http://www.w3.org/2000/svg"
 width="1920.000000pt" height="1080.000000pt" viewBox="0 0 1920.000000 1080.000000"
 preserveAspectRatio="xMidYMid meet">

<g transform="translate(0.000000,1080.000000) scale(0.100000,-0.100000)"
fill="#000000" stroke="none">
<path d="M12680 8826 c0 -2 26 -19 58 -37 134 -75 469 -305 626 -429 262 -207
450 -393 672 -665 125 -153 320 -495 364 -639 23 -73 23 -73 69 -88 101 -31
124 -166 35 -207 l-27 -12 37 -38 c35 -36 36 -38 18 -54 -26 -24 -34 -22 -73
21 -31 35 -37 38 -63 29 -19 -6 -24 -12 -16 -17 17 -10 6 -47 -24 -83 -39 -48
-139 -47 -169 0 -4 7 -13 13 -19 13 -6 0 -4 -8 5 -18 10 -10 17 -21 17 -25 0
-3 -23 -29 -51 -56 -41 -41 -48 -52 -35 -57 20 -8 62 19 71 46 4 13 15 20 31
20 31 0 32 -30 2 -70 -21 -29 -25 -30 -99 -30 -74 0 -79 1 -96 28 -10 15 -20
41 -22 57 -2 17 -4 31 -5 32 -2 2 -49 -16 -105 -38 -72 -30 -99 -45 -92 -52 6
-6 11 -15 11 -19 0 -4 -178 -8 -395 -8 l-395 0 0 -189 0 -188 -52 -35 c-100
-66 -89 -68 -137 26 -105 206 -281 348 -506 407 -102 27 -351 37 -461 19 -364
-58 -611 -308 -695 -702 -26 -122 -36 -360 -20 -497 37 -311 151 -532 359
-692 l33 -25 -30 -64 c-33 -74 -83 -239 -106 -349 -20 -96 -32 -281 -18 -281
6 0 13 23 15 50 5 47 29 90 50 90 5 0 6 -20 2 -45 -9 -62 0 -95 25 -88 14 3
22 17 26 46 12 75 84 276 144 400 81 170 73 162 149 142 34 -8 98 -18 141 -22
l78 -6 6 -121 c5 -123 41 -389 57 -432 13 -34 25 -30 61 24 78 114 254 335
371 466 106 118 418 430 533 532 50 44 109 97 132 118 24 21 49 36 57 33 7 -3
27 -29 44 -58 l30 -53 -62 -67 c-120 -127 -194 -250 -255 -423 -99 -280 -74
-581 70 -867 117 -233 369 -446 632 -533 87 -29 231 -57 286 -55 23 1 11 5
-33 10 -210 27 -476 175 -623 346 -170 199 -250 401 -260 662 -8 184 23 345
97 508 45 99 187 293 215 293 14 0 96 -126 115 -175 10 -26 7 -35 -38 -99
-108 -156 -144 -266 -146 -451 -2 -227 58 -384 208 -543 64 -68 122 -111 215
-157 205 -103 426 -112 635 -25 445 185 611 702 363 1126 -43 72 -112 146
-198 210 -63 46 -191 114 -216 114 -7 0 -13 2 -13 5 0 3 -13 69 -30 147 -16
77 -30 143 -30 146 0 8 104 -8 178 -29 83 -23 179 -64 241 -104 30 -18 49 -40
63 -73 83 -188 246 -343 437 -412 243 -89 569 -77 786 29 44 22 81 38 82 37 9
-9 25 -132 34 -271 11 -154 13 -163 30 -152 15 9 22 8 36 -6 17 -17 17 -19 1
-31 -21 -16 -23 -39 -5 -55 10 -8 19 -5 36 10 21 20 24 20 39 5 14 -13 14 -20
4 -34 -23 -33 -22 -38 23 -86 l45 -49 0 63 c0 59 -2 65 -35 96 -19 18 -35 37
-35 41 0 5 16 23 35 40 25 22 35 40 35 60 0 83 -38 300 -76 439 l-17 61 47 62
c141 182 218 487 202 798 -14 294 -94 514 -248 678 -112 120 -208 176 -385
227 -67 19 -103 22 -253 23 -96 0 -196 -3 -222 -7 -46 -7 -48 -7 -54 20 -58
269 -237 653 -430 923 -234 326 -497 572 -921 857 -70 47 -276 162 -462 256
-158 80 -761 319 -761 302z m2048 -1716 c20 0 54 -3 75 -6 l38 -7 -22 -23
c-18 -19 -33 -24 -76 -24 -29 0 -53 -3 -53 -7 0 -4 10 -17 22 -30 l22 -23 -22
-23 -22 -22 -115 115 -115 114 22 23 22 24 63 -63 63 -62 0 45 c0 25 7 55 17
69 32 47 38 43 41 -30 l3 -70 37 0z m-255 8 c14 -22 -7 -48 -39 -48 -29 0 -46
46 -23 61 20 13 50 7 62 -13z m118 -120 c38 -40 69 -75 69 -79 0 -3 -9 -14
-19 -23 -19 -17 -22 -15 -99 62 -79 80 -80 81 -59 96 12 8 26 15 31 15 5 1 39
-31 77 -71z m-617 -503 c10 -38 -20 -65 -69 -65 l-40 1 23 18 c12 11 22 23 22
27 0 13 32 44 45 44 7 0 16 -11 19 -25z m1114 -99 c-111 -56 -221 -149 -300
-255 -22 -29 -43 -40 -152 -76 -105 -35 -126 -40 -126 -26 0 23 39 294 43 297
16 16 467 90 562 93 l40 1 -67 -34z m-2934 -345 c55 -24 109 -86 135 -155 27
-71 51 -211 50 -285 l-1 -56 -110 -100 c-111 -101 -312 -318 -384 -413 -21
-29 -41 -52 -45 -52 -13 0 -40 94 -54 190 -19 125 -19 434 0 561 30 200 95
297 222 329 50 12 137 4 187 -19z m3469 5 c85 -35 143 -126 173 -268 8 -41 18
-158 21 -265 l6 -192 -155 153 c-131 128 -177 167 -292 240 -94 61 -136 94
-136 107 0 41 43 130 83 172 70 72 201 95 300 53z m-936 -108 c-88 -222 -106
-582 -43 -843 13 -55 23 -101 21 -103 -1 -2 -28 13 -58 32 -90 57 -179 96
-289 126 l-103 27 -12 64 c-22 115 -66 353 -70 380 -6 35 75 123 165 180 71
45 404 210 411 204 2 -2 -8 -32 -22 -67z m-1341 25 c10 -46 13 -53 24 -53 6 0
9 8 6 18 -2 9 -7 27 -11 40 -6 19 -3 22 24 22 23 0 30 -5 33 -22 3 -22 13 -25
48 -17 13 4 15 -53 18 -455 1 -300 -1 -463 -8 -470 -7 -7 -10 -6 -10 2 0 6
-18 48 -39 92 -22 45 -43 91 -47 103 -4 12 -62 138 -130 279 -68 142 -124 263
-124 270 0 7 47 38 105 68 100 52 133 79 81 66 -32 -8 -43 10 -16 26 11 7 20
23 20 35 0 32 18 29 26 -4z m959 -27 c-77 -29 -159 -63 -182 -74 -23 -12 -47
-22 -53 -22 -6 0 -10 30 -10 75 l0 75 193 0 192 0 -140 -54z m1030 -258 c157
-126 312 -297 411 -456 42 -66 54 -93 49 -112 -45 -192 -115 -268 -256 -278
-89 -6 -148 11 -202 59 -94 82 -130 233 -131 544 -1 213 8 315 27 315 7 0 53
-33 102 -72z m-2307 -319 c39 -66 72 -124 72 -128 0 -4 -48 -52 -107 -106 -95
-89 -106 -96 -100 -70 3 17 13 62 22 100 9 39 19 127 22 198 3 70 9 127 12
127 3 0 39 -54 79 -121z m-708 -243 c-26 -134 -76 -218 -152 -257 -22 -11 -43
-18 -46 -14 -3 3 1 49 11 103 l16 97 88 81 c97 90 103 90 83 -10z m1785 -103
c52 -170 75 -242 153 -488 39 -121 86 -269 104 -330 34 -109 46 -126 77 -106
12 8 12 19 -2 78 -49 206 -69 291 -97 415 -16 76 -30 140 -30 143 0 17 71 -12
140 -59 154 -102 245 -226 301 -406 28 -89 33 -269 10 -360 -19 -77 -84 -214
-132 -277 -53 -70 -172 -164 -262 -207 -246 -116 -530 -84 -744 86 -126 99
-193 194 -240 333 -24 72 -27 95 -27 225 0 127 3 155 25 227 30 95 87 196 107
188 8 -3 32 -5 55 -5 42 -1 42 -1 95 -88 29 -48 91 -148 138 -222 46 -74 106
-170 133 -213 48 -76 49 -77 70 -60 l21 18 -46 100 c-25 55 -82 178 -127 274
-45 96 -83 178 -85 182 -2 5 69 9 157 9 l161 0 0 330 c0 182 2 330 5 330 2 0
21 -53 40 -117z m-2020 -72 c-3 -10 -11 -38 -18 -62 -12 -41 -15 -44 -50 -47
-20 -2 -37 0 -37 3 0 4 21 33 46 66 47 59 71 75 59 40z m195 -538 c-23 -27
-65 -76 -93 -110 -74 -91 -74 -91 -92 74 l-5 51 57 7 c32 4 76 11 98 15 78 15
80 14 35 -37z"/>
<path d="M10050 8429 c-250 -28 -450 -106 -735 -284 -329 -206 -717 -555 -963
-867 -8 -10 53 22 135 69 293 170 709 372 937 455 470 170 768 228 1181 228
379 0 682 -42 1303 -181 125 -27 279 -61 342 -74 63 -14 241 -54 395 -90 154
-36 284 -65 290 -65 30 0 -250 157 -445 249 -254 121 -425 193 -600 252 -160
55 -502 159 -522 159 -4 0 -8 -6 -8 -13 0 -23 -64 -75 -112 -91 -34 -12 -53
-14 -73 -6 l-26 10 45 35 c62 47 88 74 81 84 -3 5 -32 -18 -65 -50 -61 -60
-89 -70 -121 -46 -23 17 -59 92 -59 121 0 14 -4 27 -8 30 -15 9 -375 57 -542
71 -179 16 -312 17 -430 4z m960 -119 c0 -10 8 -35 17 -55 19 -39 9 -61 -13
-30 -10 13 -24 19 -39 17 -20 -3 -25 1 -25 17 0 14 6 21 20 21 15 0 20 7 20
25 0 14 5 25 10 25 6 0 10 -9 10 -20z"/>
<path d="M11090 8316 c0 -46 67 -63 94 -24 20 28 13 35 -46 43 -47 7 -48 7
-48 -19z"/>
<path d="M3155 8274 c17 -2 89 -11 160 -20 328 -38 911 -114 1060 -139 50 -8
164 -26 255 -40 265 -42 375 -64 545 -107 259 -66 494 -158 592 -233 33 -25
49 -32 52 -23 2 7 8 16 13 19 5 3 -2 20 -16 36 -33 39 -33 63 0 102 29 34 45
38 64 16 10 -13 10 -19 -4 -33 -9 -10 -16 -26 -16 -36 0 -27 28 -30 49 -5 16
20 21 21 35 10 20 -17 21 -47 1 -55 -26 -10 -17 -30 40 -85 l56 -54 -23 -24
-23 -25 -57 63 c-48 52 -60 60 -72 50 -8 -7 -21 -9 -28 -5 -7 4 -2 -5 10 -21
13 -17 33 -46 46 -65 46 -68 245 -248 364 -328 401 -272 839 -402 1357 -402
120 0 251 6 325 15 139 17 389 72 520 114 87 28 292 112 287 118 -2 1 -72 -11
-155 -27 -448 -88 -918 -92 -1262 -9 -191 46 -503 180 -652 280 -181 121 -421
341 -457 420 -18 37 -29 49 -60 59 -41 13 -81 67 -81 108 0 37 -148 122 -290
165 -273 84 -598 124 -1175 147 -257 10 -1514 22 -1460 14z m2909 -356 c3 -13
1 -27 -4 -32 -22 -22 -9 -58 37 -107 l47 -50 -22 -22 -22 -22 -78 78 -77 79
28 23 c15 13 32 36 37 50 12 32 45 34 54 3z"/>
<path d="M3905 7582 c50 -27 223 -120 385 -207 162 -86 356 -190 430 -230 74
-40 171 -92 215 -115 44 -24 107 -57 140 -75 33 -17 152 -81 265 -142 497
-267 496 -267 685 -327 99 -32 194 -61 210 -66 86 -24 691 -223 698 -230 4 -4
-45 -56 -110 -116 -65 -60 -152 -141 -193 -179 -41 -39 -123 -115 -181 -168
l-106 -97 -287 0 -287 0 -144 116 c-80 64 -147 120 -150 125 -15 24 108 159
144 159 71 0 414 -158 538 -248 40 -30 42 -30 58 -12 16 17 13 21 -62 74 -75
55 -382 216 -410 216 -7 0 -13 5 -13 10 0 6 36 10 89 10 129 0 196 -23 348
-120 22 -14 28 -10 139 100 63 63 125 128 136 144 l21 28 -39 34 c-58 49 -175
114 -274 151 -340 127 -779 59 -1026 -160 -36 -33 -59 -47 -71 -43 -10 4 -70
49 -133 101 -63 52 -160 130 -215 173 -55 44 -147 118 -205 166 -58 47 -109
86 -113 86 -5 0 -32 -23 -61 -50 -53 -50 -97 -122 -131 -212 l-18 -48 -383 0
-384 0 0 -484 c0 -468 -1 -484 -20 -509 -11 -14 -20 -30 -20 -36 0 -7 9 -21
20 -33 14 -15 20 -36 20 -67 l0 -46 -44 48 c-42 47 -70 51 -46 8 5 -11 7 -26
4 -35 -7 -17 -39 -30 -53 -21 -6 3 -22 -15 -37 -40 -14 -25 -29 -44 -31 -41
-4 4 -92 1181 -93 1239 0 16 -24 17 -354 17 l-354 0 -6 -27 c-3 -16 -46 -284
-96 -598 -96 -607 -101 -636 -106 -620 -2 6 -51 278 -109 605 -58 327 -107
605 -110 618 l-5 22 -353 0 -352 0 -68 -952 c-37 -524 -68 -961 -67 -970 0
-17 20 -18 279 -18 l279 0 7 308 c9 353 2 843 -15 1016 -6 65 -9 120 -8 122 2
2 58 -279 124 -624 l120 -627 272 -3 c150 -1 272 1 272 6 0 24 222 1247 227
1251 3 4 3 -16 -1 -42 -14 -111 -18 -442 -11 -909 l7 -498 140 0 141 0 -7 -48
c-55 -420 8 -808 194 -1197 145 -301 411 -608 685 -790 97 -65 286 -165 395
-210 96 -39 104 -45 59 -46 -19 0 -45 -2 -59 -4 -14 -1 -65 -6 -115 -9 -165
-13 -302 -32 -379 -53 -75 -21 172 -58 589 -89 55 -4 183 -8 285 -9 102 -2
203 -8 225 -14 22 -6 87 -11 145 -11 l105 0 -57 57 c-49 49 -59 55 -73 43 -14
-11 -19 -11 -33 4 -13 13 -14 20 -5 35 10 16 9 22 -3 32 -38 31 -36 96 3 124
13 10 1 14 -68 24 -195 28 -400 90 -584 176 -304 141 -639 449 -800 735 -202
359 -272 638 -262 1034 4 173 6 191 24 205 16 14 19 26 15 81 -3 61 8 113 64
291 3 9 -12 31 -39 56 -44 41 -45 43 -52 123 -6 70 -5 84 10 100 26 29 82 36
120 16 64 -35 65 -43 65 -365 l0 -291 345 0 c373 0 366 1 346 -52 -5 -15 -15
-71 -21 -126 -20 -180 14 -352 105 -537 128 -264 381 -457 678 -520 116 -25
128 -15 17 14 -179 47 -301 122 -445 273 -96 101 -135 165 -187 304 -72 196
-83 401 -30 579 l18 60 119 3 c65 1 124 1 131 -2 10 -4 8 -16 -6 -53 -52 -140
-53 -328 -1 -483 40 -118 82 -184 181 -280 141 -138 289 -195 500 -194 218 1
366 66 517 227 75 81 128 171 165 282 19 60 23 90 23 207 0 118 2 137 15 133
74 -21 115 -26 215 -26 179 0 323 33 405 92 23 17 48 28 55 25 7 -2 38 -38 68
-78 31 -40 96 -125 147 -188 50 -63 110 -140 133 -170 23 -30 76 -98 118 -150
41 -53 113 -145 158 -205 131 -172 141 -181 225 -196 85 -16 559 -15 1136 1
576 16 1242 29 1835 36 l530 6 22 24 c13 12 19 25 14 28 -7 5 -460 18 -1091
31 -459 9 -712 15 -905 20 -104 3 -440 12 -745 20 -305 8 -596 18 -646 21
l-92 6 -99 141 c-55 78 -113 165 -128 192 -16 28 -54 88 -85 135 -100 151
-232 384 -223 394 4 3 43 6 89 6 l82 0 10 48 c6 26 16 80 23 120 7 40 17 79
23 87 6 7 83 36 170 64 134 43 172 51 236 51 l77 0 33 -172 c18 -95 35 -179
37 -185 4 -9 45 -13 141 -15 l137 -3 5 -100 c3 -55 3 -162 0 -237 -3 -75 -2
-134 2 -130 9 10 72 224 102 349 14 57 27 107 31 113 3 5 46 10 96 10 l91 0
-7 28 c-3 15 -129 450 -279 967 l-273 940 -343 0 -344 0 -23 -79 c-12 -43 -24
-81 -27 -83 -2 -2 -53 22 -112 54 -60 32 -160 85 -222 118 -62 33 -204 109
-315 168 -161 86 -237 120 -374 167 -94 33 -267 96 -385 141 -117 45 -271 103
-343 130 -166 60 -822 326 -1025 414 -137 59 -368 156 -410 171 -8 3 26 -17
75 -44z m829 -1345 c28 -24 71 -57 96 -74 25 -17 63 -46 84 -65 l40 -35 -42
-84 c-104 -209 -135 -511 -85 -829 l5 -35 -22 22 c-22 20 -24 21 -74 6 -109
-32 -299 -151 -370 -231 -18 -21 -27 -22 -198 -22 l-178 0 0 195 0 195 280 0
280 0 0 195 0 195 -280 0 -280 0 0 43 c0 42 1 42 79 92 52 33 79 55 76 65 -2
8 -7 43 -10 78 -4 34 -9 62 -11 62 -3 0 -23 -9 -45 -20 -22 -12 -51 -25 -64
-30 -24 -9 -25 -8 -25 30 l0 40 84 0 84 0 16 -74 c19 -85 63 -202 89 -237 l18
-24 -8 25 c-10 34 -6 238 5 275 l8 30 171 3 171 2 16 105 c9 57 16 113 16 124
0 31 17 26 74 -22z m2815 -959 c1 -16 -12 -18 -143 -18 -80 0 -147 3 -149 8
-4 6 123 675 139 732 5 17 30 -87 80 -340 40 -201 73 -373 73 -382z m-780 126
c-72 -247 -134 -453 -138 -457 -4 -4 -42 20 -84 54 l-77 61 0 237 0 238 108
81 c59 45 154 119 212 165 58 46 106 81 108 78 1 -4 -57 -209 -129 -457z
m-1158 139 c42 -35 79 -73 82 -86 3 -12 11 -66 18 -119 l12 -98 99 0 98 0 0
-179 0 -179 -47 -19 c-67 -25 -243 -26 -294 0 -109 54 -156 159 -180 399 -11
116 -7 345 7 410 l6 27 62 -46 c33 -26 95 -76 137 -110z m-2223 -309 c17 -12
22 -25 22 -62 l0 -46 -44 43 c-38 38 -43 46 -33 62 14 23 26 24 55 3z m1487
-262 c19 -57 35 -105 35 -106 0 -2 -27 -15 -59 -30 -33 -15 -84 -44 -113 -66
-29 -22 -56 -40 -60 -40 -5 0 -8 36 -8 80 l0 80 -80 0 -80 0 37 34 c21 18 58
46 83 61 51 33 191 96 203 92 4 -1 23 -49 42 -105z m-1626 -104 c0 -7 -4 -22
-9 -33 -7 -17 -9 -15 -9 13 -1 17 4 32 9 32 6 0 10 -6 9 -12z m3291 -87 c33
-28 34 -30 20 -56 -24 -45 -113 -131 -180 -174 -80 -52 -173 -81 -254 -80
l-61 1 70 22 c98 32 167 62 258 114 l77 44 0 89 c0 100 -1 100 70 40z m-1486
-108 c32 -35 81 -77 109 -95 l49 -32 -53 -50 c-30 -28 -85 -79 -123 -112 -61
-54 -68 -64 -62 -88 l7 -27 38 28 c21 15 89 70 151 121 81 67 117 91 129 86
43 -19 198 -54 296 -66 l109 -13 -89 -39 c-74 -33 -270 -120 -533 -238 -90
-40 -27 -27 194 40 283 87 494 145 500 139 3 -2 9 -33 15 -68 28 -170 -37
-367 -169 -509 -269 -290 -723 -275 -971 32 -118 146 -166 348 -127 535 19 86
43 155 59 165 7 4 29 8 50 8 l37 0 0 59 c0 44 5 65 21 85 31 39 120 102 192
137 l62 30 25 -33 c14 -18 52 -61 84 -95z m-284 -2559 c0 -17 6 -28 20 -31 11
-3 20 -12 20 -20 0 -10 -6 -13 -16 -9 -9 3 -36 6 -60 6 -46 0 -59 14 -23 25
11 4 24 18 29 31 12 32 30 31 30 -2z"/>
<path d="M12025 6846 c-413 -137 -818 -281 -1103 -392 -62 -24 -66 -24 -402
-24 l-340 0 -5 -22 c-5 -23 -45 -274 -45 -283 0 -6 -276 -145 -288 -145 -5 0
-26 100 -48 223 l-39 222 -357 3 -358 2 -1 -42 c0 -24 -30 -461 -67 -971 -37
-511 -65 -930 -63 -933 2 -2 129 -4 281 -4 l277 0 6 137 c4 75 7 224 8 332 1
108 4 221 7 251 l7 55 37 -85 c112 -258 138 -331 153 -442 6 -41 11 -48 29
-48 19 0 28 -15 60 -96 21 -53 62 -167 91 -253 90 -265 103 -299 104 -268 1
33 -27 526 -33 580 l-4 37 153 0 153 0 6 28 c3 15 51 281 106 592 55 311 101
572 103 580 1 8 1 -167 -1 -390 -1 -223 1 -540 5 -705 l8 -300 283 -3 c155 -1
282 1 282 5 0 5 -27 384 -60 843 -33 459 -60 844 -60 855 1 20 40 46 245 158
140 76 646 330 780 390 66 30 197 91 290 134 94 44 203 92 243 107 69 27 86
37 60 35 -7 0 -233 -74 -503 -163z m-2546 -1044 c0 -13 -3 -20 -9 -17 -5 3 -9
27 -9 53 1 42 2 44 9 17 4 -16 8 -40 9 -53z m532 -421 c-17 -101 -32 -185 -34
-187 -2 -2 -14 56 -27 130 l-23 135 54 62 c29 34 55 57 56 52 2 -5 -10 -92
-26 -192z"/>
<path d="M14450 6905 c0 -21 24 -95 31 -95 12 0 21 38 14 60 -6 18 -45 49 -45
35z"/>
<path d="M14298 6669 c-21 -11 -38 -24 -38 -29 0 -18 46 -11 64 9 28 31 14 41
-26 20z"/>
<path d="M14063 6563 c-14 -5 -18 -53 -5 -53 5 0 21 14 37 30 l29 30 -25 -1
c-13 0 -30 -3 -36 -6z"/>
<path d="M17150 6473 c-198 -31 -373 -120 -475 -243 -44 -52 -89 -148 -105
-221 -18 -83 -8 -249 19 -321 75 -195 219 -302 566 -422 264 -90 317 -131 319
-245 1 -49 -4 -64 -27 -95 -48 -62 -96 -80 -212 -80 -155 0 -297 49 -424 145
-52 39 -54 40 -71 22 -54 -58 -237 -261 -248 -275 -12 -15 -9 -21 24 -50 187
-166 451 -258 739 -258 368 0 648 141 764 384 41 84 53 144 53 256 1 213 -65
360 -212 472 -87 67 -191 115 -399 187 -264 92 -298 113 -308 191 -8 59 17
103 76 132 39 19 61 23 141 22 133 -1 257 -46 385 -139 19 -14 27 -7 144 132
139 163 136 153 55 216 -174 135 -385 198 -648 196 -72 -1 -142 -3 -156 -6z"/>
<path d="M3252 5078 c-22 -22 -14 -66 14 -85 24 -15 29 -15 53 -2 32 18 39 54
15 80 -19 21 -64 25 -82 7z"/>
<path d="M11856 4113 c-42 -67 -106 -228 -130 -323 -25 -101 -46 -258 -46
-335 1 -64 4 -88 25 -182 l8 -33 -372 0 c-230 0 -371 -4 -371 -10 0 -18 -55
-60 -86 -66 -37 -7 -83 14 -112 51 -25 32 -36 32 -50 0 -18 -40 -16 -45 40
-97 l52 -48 -24 -25 -24 -25 -77 77 c-73 72 -77 79 -62 95 9 10 22 18 30 18 7
0 13 7 13 16 0 14 -7 15 -37 10 -21 -3 -51 -6 -67 -6 -22 0 -27 -4 -22 -16 4
-10 -1 -25 -10 -35 -32 -35 6 -67 40 -34 19 19 30 19 46 0 10 -13 10 -19 -4
-33 -25 -28 -20 -44 27 -89 l42 -42 215 -11 c118 -6 445 -24 725 -40 281 -17
523 -30 539 -30 l28 0 -48 53 c-155 172 -254 444 -284 781 -13 135 -3 274 25
384 7 28 12 52 10 52 -2 0 -20 -26 -39 -57z"/>
<path d="M16046 3999 c-2 -8 -9 -54 -15 -102 -7 -49 -14 -103 -17 -120 -4 -25
-3 -29 5 -17 19 26 32 -9 29 -76 -4 -69 -32 -120 -81 -149 -16 -10 -33 -31
-39 -47 -19 -55 -94 -202 -157 -308 -138 -231 -355 -451 -607 -616 -165 -108
-446 -220 -659 -263 -250 -51 -545 -46 -795 12 -385 90 -764 316 -1015 604
-100 115 -212 283 -286 429 -32 64 -59 114 -59 110 0 -20 83 -211 141 -326 90
-176 201 -324 363 -485 148 -147 217 -201 381 -300 63 -38 115 -73 115 -78 0
-6 -76 -7 -192 -3 -761 25 -1488 31 -3573 31 -2090 0 -2749 -6 -3552 -31 -141
-5 -203 -3 -203 4 0 6 28 25 63 42 179 91 241 131 377 241 199 160 370 358
492 570 119 207 178 358 228 575 11 48 10 56 -12 99 l-24 47 -28 -113 c-49
-199 -123 -365 -248 -559 -148 -228 -345 -419 -597 -579 -146 -93 -342 -173
-554 -226 -98 -24 -112 -31 -144 -66 -53 -59 -126 -61 -172 -5 -8 9 -26 16
-42 16 -47 0 -39 -41 21 -104 48 -51 49 -54 32 -69 -10 -10 -23 -17 -28 -17
-5 0 -43 34 -84 75 -73 73 -73 75 -55 95 18 20 18 20 -18 20 -19 0 -43 3 -53
7 -13 5 -16 3 -11 -10 3 -9 -3 -27 -13 -40 -19 -24 -19 -25 -1 -41 16 -15 19
-15 36 4 23 25 41 26 54 1 8 -14 5 -23 -13 -40 l-23 -22 58 -56 59 -56 -21
-23 -21 -22 29 -5 c15 -3 118 -8 228 -12 110 -3 353 -10 540 -15 2302 -66
6030 -57 8070 20 898 34 1486 81 1510 120 11 17 -170 49 -372 65 -46 4 -83 10
-83 14 1 3 58 34 128 68 349 169 656 454 858 796 95 160 192 425 234 636 22
112 25 145 12 137 -5 -3 -31 17 -58 45 -41 42 -54 49 -76 45 -34 -7 -57 17
-40 44 9 14 8 21 -3 30 -12 10 -16 9 -19 -1z"/>
<path d="M11440 3801 c0 -5 7 -11 15 -15 9 -3 15 0 15 9 0 8 -7 15 -15 15 -8
0 -15 -4 -15 -9z"/>
<path d="M11380 3749 c0 -15 7 -32 16 -40 11 -9 14 -22 10 -44 -4 -17 0 -49 7
-71 l14 -39 13 74 12 73 -36 37 -36 36 0 -26z"/>
<path d="M11112 3498 c-20 -20 -14 -28 23 -28 19 0 35 4 35 8 0 12 -22 32 -35
32 -6 0 -16 -5 -23 -12z"/>
<path d="M10987 3493 c-15 -14 -6 -24 20 -21 34 4 43 28 11 28 -14 0 -28 -3
-31 -7z"/>
<path d="M10850 3230 c0 -13 40 -13 60 0 11 7 5 10 -22 10 -21 0 -38 -4 -38
-10z"/>
<path d="M9740 3219 c-201 -4 -574 -12 -830 -18 -256 -6 -613 -14 -795 -17
-371 -7 -462 -17 -260 -28 168 -9 916 -55 1250 -76 192 -12 422 -27 650 -40
99 -6 238 -15 309 -21 191 -13 246 -12 246 6 0 8 7 15 15 15 8 0 15 -8 15 -19
0 -16 11 -19 92 -25 50 -3 107 -6 126 -6 l36 0 -23 22 c-19 17 -27 19 -42 10
-24 -15 -56 12 -38 34 8 10 6 20 -10 43 -28 39 -27 76 4 106 l24 25 -202 -2
c-111 -1 -366 -5 -567 -9z"/>
<path d="M5290 2320 c-13 -9 -13 -10 0 -9 8 0 24 4 35 9 l20 9 -20 0 c-11 0
-27 -4 -35 -9z"/>
</g>
</svg>
